# xmcd
#
# Track frame offsets: 
#        150
#        24048
#        40388
#        52980
#        63770
#        74900
#
# Disc length: 1159 seconds
#
# Revision: 2
# Processed by: cddbd v1.4PL0 Copyright (c) Steve Scherf et al.
# Submitted via: ExactAudioCopy v0.90b4
#
DISCID=4b048506
DTITLE=Sublime - Special 2 CD Set - 2of2 (Special 6 Song EP)
DYEAR=1900
DGENRE=
TTITLE0=Doin  Time (eerie splendor remix)
TTITLE1=Date Rape
TTITLE2=All You Need
TTITLE3=Lincoln Highway Dub
TTITLE4=Rivers Of Babylon
TTITLE5=What I Got (demo)
EXTD=
EXTT0=
EXTT1=
EXTT2=
EXTT3=
EXTT4=
EXTT5=
PLAYORDER=
